<mxfile host="app.diagrams.net" modified="2023-09-06T20:18:26.429Z" agent="Mozilla/5.0 (Windows NT 10.0; Win64; x64) AppleWebKit/537.36 (KHTML, like Gecko) Chrome/116.0.0.0 Whale/3.22.205.14 Safari/537.36" etag="fZVfpaixgiG9JMk6mQZ6" version="21.7.2" type="github">
  <diagram name="페이지-1" id="zbxW8SXZaUEsaQNp13DO">
    <mxGraphModel dx="1580" dy="847" grid="1" gridSize="10" guides="1" tooltips="1" connect="1" arrows="1" fold="1" page="1" pageScale="1" pageWidth="827" pageHeight="1169" math="0" shadow="0">
      <root>
        <mxCell id="0" />
        <mxCell id="1" parent="0" />
        <mxCell id="1lFtdwW7nYMoII0ZGkiB-70" value="&lt;p style=&quot;margin:0px;margin-top:4px;text-align:center;&quot;&gt;&lt;i&gt;&amp;lt;&amp;lt;concrete&amp;gt;&amp;gt;&lt;/i&gt;&lt;br&gt;&lt;b&gt;Player&lt;/b&gt;&lt;/p&gt;&lt;p style=&quot;margin:0px;margin-left:4px;&quot;&gt;&lt;br&gt;&lt;/p&gt;" style="verticalAlign=top;align=left;overflow=fill;fontSize=12;fontFamily=Helvetica;html=1;whiteSpace=wrap;fillStyle=zigzag-line;" parent="1" vertex="1">
          <mxGeometry x="320" y="40" width="1600" height="880" as="geometry" />
        </mxCell>
        <mxCell id="1lFtdwW7nYMoII0ZGkiB-17" style="edgeStyle=orthogonalEdgeStyle;rounded=0;orthogonalLoop=1;jettySize=auto;html=1;exitX=0.5;exitY=1;exitDx=0;exitDy=0;entryX=0.5;entryY=0;entryDx=0;entryDy=0;" parent="1" source="1lFtdwW7nYMoII0ZGkiB-1" edge="1">
          <mxGeometry relative="1" as="geometry">
            <mxPoint x="140" y="120" as="targetPoint" />
          </mxGeometry>
        </mxCell>
        <mxCell id="1lFtdwW7nYMoII0ZGkiB-1" value="Users : Input" style="rounded=0;whiteSpace=wrap;html=1;fillColor=#f5f5f5;fontColor=#333333;strokeColor=#666666;" parent="1" vertex="1">
          <mxGeometry x="40" y="40" width="200" height="40" as="geometry" />
        </mxCell>
        <mxCell id="1lFtdwW7nYMoII0ZGkiB-32" value="" style="rounded=0;orthogonalLoop=1;jettySize=auto;html=1;endArrow=halfCircle;endFill=0;endSize=6;strokeWidth=1;sketch=0;fontSize=12;curved=1;fillColor=#dae8fc;strokeColor=#6c8ebf;" parent="1" edge="1">
          <mxGeometry relative="1" as="geometry">
            <mxPoint x="80" y="280" as="sourcePoint" />
            <mxPoint x="80" y="300" as="targetPoint" />
          </mxGeometry>
        </mxCell>
        <mxCell id="1lFtdwW7nYMoII0ZGkiB-34" value="" style="rounded=0;orthogonalLoop=1;jettySize=auto;html=1;endArrow=halfCircle;endFill=0;endSize=6;strokeWidth=1;sketch=0;fontSize=12;curved=1;exitX=0.5;exitY=1;exitDx=0;exitDy=0;fillColor=#f8cecc;strokeColor=#b85450;" parent="1" edge="1">
          <mxGeometry relative="1" as="geometry">
            <mxPoint x="140" y="280" as="sourcePoint" />
            <mxPoint x="140" y="300" as="targetPoint" />
          </mxGeometry>
        </mxCell>
        <mxCell id="1lFtdwW7nYMoII0ZGkiB-35" value="" style="rounded=0;orthogonalLoop=1;jettySize=auto;html=1;endArrow=halfCircle;endFill=0;endSize=6;strokeWidth=1;sketch=0;fontSize=12;curved=1;exitX=0.799;exitY=0.991;exitDx=0;exitDy=0;exitPerimeter=0;fillColor=#d5e8d4;strokeColor=#82b366;" parent="1" source="1lFtdwW7nYMoII0ZGkiB-78" edge="1">
          <mxGeometry relative="1" as="geometry">
            <mxPoint x="199.79999999999995" y="279.64" as="sourcePoint" />
            <mxPoint x="200" y="300" as="targetPoint" />
          </mxGeometry>
        </mxCell>
        <mxCell id="1lFtdwW7nYMoII0ZGkiB-36" value="«Component»&lt;br style=&quot;border-color: var(--border-color);&quot;&gt;&lt;b&gt;KeyboardInputHandler&lt;/b&gt;" style="html=1;dropTarget=0;whiteSpace=wrap;fillColor=#dae8fc;strokeColor=#6c8ebf;" parent="1" vertex="1">
          <mxGeometry x="40" y="360" width="200" height="40" as="geometry" />
        </mxCell>
        <mxCell id="1lFtdwW7nYMoII0ZGkiB-37" value="" style="shape=module;jettyWidth=8;jettyHeight=4;" parent="1lFtdwW7nYMoII0ZGkiB-36" vertex="1">
          <mxGeometry x="1" width="20" height="20" relative="1" as="geometry">
            <mxPoint x="-27" y="7" as="offset" />
          </mxGeometry>
        </mxCell>
        <mxCell id="1lFtdwW7nYMoII0ZGkiB-40" value="" style="ellipse;whiteSpace=wrap;html=1;align=center;aspect=fixed;fillColor=none;strokeColor=none;resizable=0;perimeter=centerPerimeter;rotatable=0;allowArrows=0;points=[];outlineConnect=1;" parent="1" vertex="1">
          <mxGeometry x="110" y="320" width="10" height="10" as="geometry" />
        </mxCell>
        <mxCell id="1lFtdwW7nYMoII0ZGkiB-43" value="" style="rounded=0;orthogonalLoop=1;jettySize=auto;html=1;endArrow=oval;endFill=0;sketch=0;sourcePerimeterSpacing=0;targetPerimeterSpacing=0;endSize=10;exitX=0.2;exitY=0.011;exitDx=0;exitDy=0;exitPerimeter=0;fillColor=#dae8fc;strokeColor=#6c8ebf;" parent="1" source="1lFtdwW7nYMoII0ZGkiB-36" edge="1">
          <mxGeometry relative="1" as="geometry">
            <mxPoint x="210" y="365" as="sourcePoint" />
            <mxPoint x="80" y="340" as="targetPoint" />
          </mxGeometry>
        </mxCell>
        <mxCell id="1lFtdwW7nYMoII0ZGkiB-44" value="" style="ellipse;whiteSpace=wrap;html=1;align=center;aspect=fixed;fillColor=none;strokeColor=none;resizable=0;perimeter=centerPerimeter;rotatable=0;allowArrows=0;points=[];outlineConnect=1;" parent="1" vertex="1">
          <mxGeometry x="225" y="360" width="10" height="10" as="geometry" />
        </mxCell>
        <mxCell id="1lFtdwW7nYMoII0ZGkiB-74" value="«Component»&lt;br&gt;&lt;b&gt;PlayerInput&lt;/b&gt;" style="html=1;dropTarget=0;whiteSpace=wrap;fillColor=#ffe6cc;strokeColor=#d79b00;" parent="1" vertex="1">
          <mxGeometry x="40" y="120" width="200" height="40" as="geometry" />
        </mxCell>
        <mxCell id="1lFtdwW7nYMoII0ZGkiB-75" value="" style="shape=module;jettyWidth=8;jettyHeight=4;" parent="1lFtdwW7nYMoII0ZGkiB-74" vertex="1">
          <mxGeometry x="1" width="20" height="20" relative="1" as="geometry">
            <mxPoint x="-27" y="7" as="offset" />
          </mxGeometry>
        </mxCell>
        <mxCell id="1lFtdwW7nYMoII0ZGkiB-78" value="«Component»&lt;br&gt;&lt;b&gt;Controller&lt;/b&gt;" style="html=1;dropTarget=0;whiteSpace=wrap;fillColor=#ffe6cc;strokeColor=#d79b00;" parent="1" vertex="1">
          <mxGeometry x="40" y="240" width="200" height="40" as="geometry" />
        </mxCell>
        <mxCell id="1lFtdwW7nYMoII0ZGkiB-79" value="" style="shape=module;jettyWidth=8;jettyHeight=4;" parent="1lFtdwW7nYMoII0ZGkiB-78" vertex="1">
          <mxGeometry x="1" width="20" height="20" relative="1" as="geometry">
            <mxPoint x="-27" y="7" as="offset" />
          </mxGeometry>
        </mxCell>
        <mxCell id="1lFtdwW7nYMoII0ZGkiB-83" value="«Component»&lt;br&gt;&lt;b&gt;Controller&lt;br&gt;&lt;/b&gt;" style="html=1;dropTarget=0;whiteSpace=wrap;verticalAlign=top;fillStyle=auto;fillColor=#ffe6cc;strokeColor=#d79b00;" parent="1" vertex="1">
          <mxGeometry x="360" y="280" width="1520" height="400" as="geometry" />
        </mxCell>
        <mxCell id="1lFtdwW7nYMoII0ZGkiB-84" value="" style="shape=module;jettyWidth=8;jettyHeight=4;" parent="1lFtdwW7nYMoII0ZGkiB-83" vertex="1">
          <mxGeometry x="1" width="20" height="20" relative="1" as="geometry">
            <mxPoint x="-27" y="7" as="offset" />
          </mxGeometry>
        </mxCell>
        <mxCell id="1lFtdwW7nYMoII0ZGkiB-139" style="edgeStyle=orthogonalEdgeStyle;orthogonalLoop=1;jettySize=auto;html=1;entryX=0.5;entryY=0;entryDx=0;entryDy=0;curved=1;" parent="1" source="1lFtdwW7nYMoII0ZGkiB-93" target="1lFtdwW7nYMoII0ZGkiB-137" edge="1">
          <mxGeometry relative="1" as="geometry" />
        </mxCell>
        <mxCell id="1lFtdwW7nYMoII0ZGkiB-140" style="edgeStyle=orthogonalEdgeStyle;rounded=0;orthogonalLoop=1;jettySize=auto;html=1;exitX=0.5;exitY=1;exitDx=0;exitDy=0;entryX=0.5;entryY=0;entryDx=0;entryDy=0;" parent="1" source="1lFtdwW7nYMoII0ZGkiB-93" target="1lFtdwW7nYMoII0ZGkiB-138" edge="1">
          <mxGeometry relative="1" as="geometry" />
        </mxCell>
        <mxCell id="1lFtdwW7nYMoII0ZGkiB-93" value="«Concrete»&lt;br&gt;&lt;b&gt;PlayerController&lt;/b&gt;" style="html=1;dropTarget=0;whiteSpace=wrap;verticalAlign=middle;" parent="1" vertex="1">
          <mxGeometry x="400" y="450" width="160" height="60" as="geometry" />
        </mxCell>
        <mxCell id="1lFtdwW7nYMoII0ZGkiB-108" value="" style="rounded=0;orthogonalLoop=1;jettySize=auto;html=1;endArrow=halfCircle;endFill=0;endSize=6;strokeWidth=1;sketch=0;fontSize=12;curved=1;fillColor=#ffe6cc;strokeColor=#d79b00;" parent="1" edge="1">
          <mxGeometry relative="1" as="geometry">
            <mxPoint x="141" y="160" as="sourcePoint" />
            <mxPoint x="141" y="180" as="targetPoint" />
          </mxGeometry>
        </mxCell>
        <mxCell id="1lFtdwW7nYMoII0ZGkiB-109" value="" style="rounded=0;orthogonalLoop=1;jettySize=auto;html=1;endArrow=oval;endFill=0;sketch=0;sourcePerimeterSpacing=0;targetPerimeterSpacing=0;endSize=10;exitX=0.2;exitY=0.011;exitDx=0;exitDy=0;exitPerimeter=0;fillColor=#ffe6cc;strokeColor=#d79b00;" parent="1" edge="1">
          <mxGeometry relative="1" as="geometry">
            <mxPoint x="141" y="240" as="sourcePoint" />
            <mxPoint x="141" y="220" as="targetPoint" />
          </mxGeometry>
        </mxCell>
        <mxCell id="1lFtdwW7nYMoII0ZGkiB-112" value="«Component»&lt;br style=&quot;border-color: var(--border-color);&quot;&gt;&lt;b&gt;MouseMoveHandler&lt;/b&gt;" style="html=1;dropTarget=0;whiteSpace=wrap;fillColor=#f8cecc;strokeColor=#b85450;" parent="1" vertex="1">
          <mxGeometry x="40" y="460" width="200" height="40" as="geometry" />
        </mxCell>
        <mxCell id="1lFtdwW7nYMoII0ZGkiB-113" value="" style="shape=module;jettyWidth=8;jettyHeight=4;" parent="1lFtdwW7nYMoII0ZGkiB-112" vertex="1">
          <mxGeometry x="1" width="20" height="20" relative="1" as="geometry">
            <mxPoint x="-27" y="7" as="offset" />
          </mxGeometry>
        </mxCell>
        <mxCell id="1lFtdwW7nYMoII0ZGkiB-114" value="" style="rounded=0;orthogonalLoop=1;jettySize=auto;html=1;endArrow=oval;endFill=0;sketch=0;sourcePerimeterSpacing=0;targetPerimeterSpacing=0;endSize=10;exitX=0.5;exitY=0;exitDx=0;exitDy=0;fillColor=#f8cecc;strokeColor=#b85450;" parent="1" source="1lFtdwW7nYMoII0ZGkiB-112" edge="1">
          <mxGeometry relative="1" as="geometry">
            <mxPoint x="210" y="465" as="sourcePoint" />
            <mxPoint x="140" y="440" as="targetPoint" />
          </mxGeometry>
        </mxCell>
        <mxCell id="1lFtdwW7nYMoII0ZGkiB-115" value="" style="ellipse;whiteSpace=wrap;html=1;align=center;aspect=fixed;fillColor=none;strokeColor=none;resizable=0;perimeter=centerPerimeter;rotatable=0;allowArrows=0;points=[];outlineConnect=1;" parent="1" vertex="1">
          <mxGeometry x="225" y="460" width="10" height="10" as="geometry" />
        </mxCell>
        <mxCell id="1lFtdwW7nYMoII0ZGkiB-118" value="" style="rounded=0;orthogonalLoop=1;jettySize=auto;html=1;endArrow=oval;endFill=0;sketch=0;sourcePerimeterSpacing=0;targetPerimeterSpacing=0;endSize=10;fillColor=#d5e8d4;strokeColor=#82b366;exitX=0.8;exitY=0;exitDx=0;exitDy=0;exitPerimeter=0;" parent="1" source="1lFtdwW7nYMoII0ZGkiB-119" edge="1">
          <mxGeometry relative="1" as="geometry">
            <mxPoint x="230" y="540" as="sourcePoint" />
            <mxPoint x="200" y="540" as="targetPoint" />
          </mxGeometry>
        </mxCell>
        <mxCell id="1lFtdwW7nYMoII0ZGkiB-119" value="«Component»&lt;br style=&quot;border-color: var(--border-color);&quot;&gt;&lt;b&gt;MouseClickHandler&lt;/b&gt;" style="html=1;dropTarget=0;whiteSpace=wrap;fillColor=#d5e8d4;strokeColor=#82b366;" parent="1" vertex="1">
          <mxGeometry x="40" y="560" width="200" height="40" as="geometry" />
        </mxCell>
        <mxCell id="1lFtdwW7nYMoII0ZGkiB-120" value="" style="shape=module;jettyWidth=8;jettyHeight=4;" parent="1lFtdwW7nYMoII0ZGkiB-119" vertex="1">
          <mxGeometry x="1" width="20" height="20" relative="1" as="geometry">
            <mxPoint x="-27" y="7" as="offset" />
          </mxGeometry>
        </mxCell>
        <mxCell id="1lFtdwW7nYMoII0ZGkiB-122" style="edgeStyle=orthogonalEdgeStyle;rounded=0;orthogonalLoop=1;jettySize=auto;html=1;entryX=0.5;entryY=1;entryDx=0;entryDy=0;dashed=1;" parent="1" source="1lFtdwW7nYMoII0ZGkiB-93" target="1lFtdwW7nYMoII0ZGkiB-100" edge="1">
          <mxGeometry relative="1" as="geometry" />
        </mxCell>
        <mxCell id="1lFtdwW7nYMoII0ZGkiB-123" style="edgeStyle=orthogonalEdgeStyle;orthogonalLoop=1;jettySize=auto;html=1;entryX=0.5;entryY=1;entryDx=0;entryDy=0;curved=1;" parent="1" source="1lFtdwW7nYMoII0ZGkiB-93" target="1lFtdwW7nYMoII0ZGkiB-102" edge="1">
          <mxGeometry relative="1" as="geometry" />
        </mxCell>
        <mxCell id="1lFtdwW7nYMoII0ZGkiB-33" value="" style="ellipse;whiteSpace=wrap;html=1;align=center;aspect=fixed;fillColor=none;strokeColor=none;resizable=0;perimeter=centerPerimeter;rotatable=0;allowArrows=0;points=[];outlineConnect=1;" parent="1" vertex="1">
          <mxGeometry x="400" y="210" width="10" height="10" as="geometry" />
        </mxCell>
        <mxCell id="1lFtdwW7nYMoII0ZGkiB-81" value="«Component»&lt;br&gt;&lt;b&gt;PlayerInput&lt;/b&gt;" style="html=1;dropTarget=0;whiteSpace=wrap;verticalAlign=top;fillStyle=auto;fillColor=#ffe6cc;strokeColor=#d79b00;container=0;" parent="1" vertex="1">
          <mxGeometry x="360" y="80" width="480" height="160" as="geometry" />
        </mxCell>
        <mxCell id="1lFtdwW7nYMoII0ZGkiB-136" style="edgeStyle=orthogonalEdgeStyle;orthogonalLoop=1;jettySize=auto;html=1;entryX=0.5;entryY=0;entryDx=0;entryDy=0;exitX=1;exitY=0.75;exitDx=0;exitDy=0;curved=1;" parent="1" source="1lFtdwW7nYMoII0ZGkiB-91" target="1lFtdwW7nYMoII0ZGkiB-102" edge="1">
          <mxGeometry relative="1" as="geometry" />
        </mxCell>
        <mxCell id="1lFtdwW7nYMoII0ZGkiB-91" value="«Concrete»&lt;br&gt;&lt;b&gt;PlayerInput&lt;/b&gt;" style="html=1;dropTarget=0;whiteSpace=wrap;verticalAlign=middle;" parent="1" vertex="1">
          <mxGeometry x="400" y="150" width="160" height="60" as="geometry" />
        </mxCell>
        <mxCell id="1lFtdwW7nYMoII0ZGkiB-133" style="edgeStyle=orthogonalEdgeStyle;rounded=0;orthogonalLoop=1;jettySize=auto;html=1;entryX=1;entryY=0.5;entryDx=0;entryDy=0;" parent="1" source="1lFtdwW7nYMoII0ZGkiB-94" target="1lFtdwW7nYMoII0ZGkiB-91" edge="1">
          <mxGeometry relative="1" as="geometry">
            <mxPoint x="520" y="180" as="targetPoint" />
          </mxGeometry>
        </mxCell>
        <mxCell id="1lFtdwW7nYMoII0ZGkiB-94" value="«model»&lt;br&gt;&lt;b&gt;InputActions&lt;/b&gt;" style="html=1;dropTarget=0;whiteSpace=wrap;verticalAlign=middle;" parent="1" vertex="1">
          <mxGeometry x="640" y="150" width="160" height="60" as="geometry" />
        </mxCell>
        <mxCell id="1lFtdwW7nYMoII0ZGkiB-96" style="rounded=0;orthogonalLoop=1;jettySize=auto;html=1;entryX=0;entryY=0.5;entryDx=0;entryDy=0;" parent="1" source="1lFtdwW7nYMoII0ZGkiB-91" target="1lFtdwW7nYMoII0ZGkiB-94" edge="1">
          <mxGeometry relative="1" as="geometry" />
        </mxCell>
        <mxCell id="1lFtdwW7nYMoII0ZGkiB-100" value="«Interface»&lt;br&gt;&lt;b&gt;IController&lt;/b&gt;" style="html=1;dropTarget=0;whiteSpace=wrap;verticalAlign=middle;" parent="1" vertex="1">
          <mxGeometry x="400" y="330" width="160" height="60" as="geometry" />
        </mxCell>
        <mxCell id="1lFtdwW7nYMoII0ZGkiB-102" value="«model»&lt;br&gt;&lt;b&gt;InputValue&lt;/b&gt;" style="html=1;dropTarget=0;whiteSpace=wrap;verticalAlign=middle;" parent="1" vertex="1">
          <mxGeometry x="640" y="330" width="160" height="60" as="geometry" />
        </mxCell>
        <mxCell id="1lFtdwW7nYMoII0ZGkiB-105" style="edgeStyle=orthogonalEdgeStyle;rounded=0;orthogonalLoop=1;jettySize=auto;html=1;entryX=0;entryY=0.5;entryDx=0;entryDy=0;" parent="1" source="1lFtdwW7nYMoII0ZGkiB-100" target="1lFtdwW7nYMoII0ZGkiB-102" edge="1">
          <mxGeometry relative="1" as="geometry" />
        </mxCell>
        <mxCell id="1lFtdwW7nYMoII0ZGkiB-82" value="" style="shape=module;jettyWidth=8;jettyHeight=4;" parent="1" vertex="1">
          <mxGeometry x="813" y="87" width="20" height="20" as="geometry">
            <mxPoint x="-27" y="7" as="offset" />
          </mxGeometry>
        </mxCell>
        <mxCell id="1lFtdwW7nYMoII0ZGkiB-137" value="«model»&lt;br&gt;&lt;b&gt;KeyboardMove&lt;/b&gt;" style="html=1;dropTarget=0;whiteSpace=wrap;verticalAlign=middle;" parent="1" vertex="1">
          <mxGeometry x="640" y="570" width="160" height="60" as="geometry" />
        </mxCell>
        <mxCell id="1lFtdwW7nYMoII0ZGkiB-141" style="edgeStyle=orthogonalEdgeStyle;rounded=0;orthogonalLoop=1;jettySize=auto;html=1;exitX=1;exitY=0.5;exitDx=0;exitDy=0;" parent="1" source="1lFtdwW7nYMoII0ZGkiB-138" target="1lFtdwW7nYMoII0ZGkiB-137" edge="1">
          <mxGeometry relative="1" as="geometry" />
        </mxCell>
        <mxCell id="1lFtdwW7nYMoII0ZGkiB-138" value="«Interface»&lt;br&gt;&lt;b&gt;IKeyboardInputHandler&lt;br&gt;&lt;/b&gt;" style="html=1;dropTarget=0;whiteSpace=wrap;verticalAlign=middle;" parent="1" vertex="1">
          <mxGeometry x="400" y="570" width="160" height="60" as="geometry" />
        </mxCell>
        <mxCell id="1lFtdwW7nYMoII0ZGkiB-142" value="«Component»&lt;br style=&quot;border-color: var(--border-color);&quot;&gt;&lt;b style=&quot;border-color: var(--border-color);&quot;&gt;KeyboardInputHandler&lt;/b&gt;" style="html=1;dropTarget=0;whiteSpace=wrap;verticalAlign=top;fillStyle=auto;fillColor=#dae8fc;strokeColor=#6c8ebf;" parent="1" vertex="1">
          <mxGeometry x="360" y="720" width="480" height="160" as="geometry" />
        </mxCell>
        <mxCell id="1lFtdwW7nYMoII0ZGkiB-143" value="" style="shape=module;jettyWidth=8;jettyHeight=4;" parent="1lFtdwW7nYMoII0ZGkiB-142" vertex="1">
          <mxGeometry x="1" width="20" height="20" relative="1" as="geometry">
            <mxPoint x="-27" y="7" as="offset" />
          </mxGeometry>
        </mxCell>
        <mxCell id="1lFtdwW7nYMoII0ZGkiB-145" style="edgeStyle=orthogonalEdgeStyle;rounded=0;orthogonalLoop=1;jettySize=auto;html=1;exitX=0.5;exitY=0;exitDx=0;exitDy=0;dashed=1;" parent="1" source="1lFtdwW7nYMoII0ZGkiB-144" target="1lFtdwW7nYMoII0ZGkiB-138" edge="1">
          <mxGeometry relative="1" as="geometry" />
        </mxCell>
        <mxCell id="1lFtdwW7nYMoII0ZGkiB-146" style="edgeStyle=orthogonalEdgeStyle;orthogonalLoop=1;jettySize=auto;html=1;exitX=1;exitY=0.5;exitDx=0;exitDy=0;curved=1;" parent="1" source="1lFtdwW7nYMoII0ZGkiB-144" target="1lFtdwW7nYMoII0ZGkiB-137" edge="1">
          <mxGeometry relative="1" as="geometry" />
        </mxCell>
        <mxCell id="1lFtdwW7nYMoII0ZGkiB-144" value="«Concrete»&lt;br&gt;&lt;b&gt;Movement_&lt;/b&gt;&lt;b style=&quot;border-color: var(--border-color);&quot;&gt;Smooth&lt;/b&gt;" style="html=1;dropTarget=0;whiteSpace=wrap;verticalAlign=middle;" parent="1" vertex="1">
          <mxGeometry x="400" y="770" width="160" height="60" as="geometry" />
        </mxCell>
        <mxCell id="1lFtdwW7nYMoII0ZGkiB-147" value="«Component»&lt;br style=&quot;border-color: var(--border-color);&quot;&gt;&lt;b style=&quot;border-color: var(--border-color);&quot;&gt;KeyboardInputHandler&lt;/b&gt;" style="html=1;dropTarget=0;whiteSpace=wrap;verticalAlign=top;fillStyle=auto;fillColor=#dae8fc;strokeColor=#6c8ebf;" parent="1" vertex="1">
          <mxGeometry x="360" y="960" width="480" height="160" as="geometry" />
        </mxCell>
        <mxCell id="1lFtdwW7nYMoII0ZGkiB-148" value="" style="shape=module;jettyWidth=8;jettyHeight=4;" parent="1lFtdwW7nYMoII0ZGkiB-147" vertex="1">
          <mxGeometry x="1" width="20" height="20" relative="1" as="geometry">
            <mxPoint x="-27" y="7" as="offset" />
          </mxGeometry>
        </mxCell>
        <mxCell id="1lFtdwW7nYMoII0ZGkiB-149" value="«Concrete»&lt;br&gt;&lt;b&gt;Movement_&lt;/b&gt;&lt;b style=&quot;border-color: var(--border-color);&quot;&gt;Grid&lt;/b&gt;" style="html=1;dropTarget=0;whiteSpace=wrap;verticalAlign=middle;" parent="1" vertex="1">
          <mxGeometry x="400" y="980" width="120" height="60" as="geometry" />
        </mxCell>
        <mxCell id="1lFtdwW7nYMoII0ZGkiB-150" value="«Component»&lt;br style=&quot;border-color: var(--border-color);&quot;&gt;&lt;b&gt;MouseMoveHandler&lt;/b&gt;" style="html=1;dropTarget=0;whiteSpace=wrap;verticalAlign=top;fillStyle=auto;fillColor=#f8cecc;strokeColor=#b85450;" parent="1" vertex="1">
          <mxGeometry x="880" y="720" width="480" height="160" as="geometry" />
        </mxCell>
        <mxCell id="1lFtdwW7nYMoII0ZGkiB-151" value="" style="shape=module;jettyWidth=8;jettyHeight=4;" parent="1lFtdwW7nYMoII0ZGkiB-150" vertex="1">
          <mxGeometry x="1" width="20" height="20" relative="1" as="geometry">
            <mxPoint x="-27" y="7" as="offset" />
          </mxGeometry>
        </mxCell>
        <mxCell id="1lFtdwW7nYMoII0ZGkiB-152" value="«Component»&lt;br style=&quot;border-color: var(--border-color);&quot;&gt;&lt;b&gt;MouseClickHandler&lt;br&gt;&lt;/b&gt;" style="html=1;dropTarget=0;whiteSpace=wrap;verticalAlign=top;fillStyle=auto;fillColor=#d5e8d4;strokeColor=#82b366;" parent="1" vertex="1">
          <mxGeometry x="1400" y="720" width="480" height="160" as="geometry" />
        </mxCell>
        <mxCell id="1lFtdwW7nYMoII0ZGkiB-153" value="" style="shape=module;jettyWidth=8;jettyHeight=4;" parent="1lFtdwW7nYMoII0ZGkiB-152" vertex="1">
          <mxGeometry x="1" width="20" height="20" relative="1" as="geometry">
            <mxPoint x="-27" y="7" as="offset" />
          </mxGeometry>
        </mxCell>
        <mxCell id="1WuVOnrrcyGIG8zz4NqY-1" style="edgeStyle=orthogonalEdgeStyle;rounded=0;orthogonalLoop=1;jettySize=auto;html=1;exitX=1;exitY=0.5;exitDx=0;exitDy=0;entryX=0;entryY=0.5;entryDx=0;entryDy=0;" parent="1" source="1lFtdwW7nYMoII0ZGkiB-155" target="1lFtdwW7nYMoII0ZGkiB-156" edge="1">
          <mxGeometry relative="1" as="geometry" />
        </mxCell>
        <mxCell id="1lFtdwW7nYMoII0ZGkiB-155" value="«Interface»&lt;br&gt;&lt;b&gt;IMouseMoveHandler&lt;br&gt;&lt;/b&gt;" style="html=1;dropTarget=0;whiteSpace=wrap;verticalAlign=middle;" parent="1" vertex="1">
          <mxGeometry x="920" y="570" width="160" height="60" as="geometry" />
        </mxCell>
        <mxCell id="1lFtdwW7nYMoII0ZGkiB-156" value="«model»&lt;br&gt;&lt;b&gt;MouseMove&lt;/b&gt;" style="html=1;dropTarget=0;whiteSpace=wrap;verticalAlign=middle;" parent="1" vertex="1">
          <mxGeometry x="1160" y="570" width="160" height="60" as="geometry" />
        </mxCell>
        <mxCell id="1lFtdwW7nYMoII0ZGkiB-193" style="edgeStyle=orthogonalEdgeStyle;rounded=0;orthogonalLoop=1;jettySize=auto;html=1;entryX=0.5;entryY=0;entryDx=0;entryDy=0;" parent="1" source="1lFtdwW7nYMoII0ZGkiB-165" target="1lFtdwW7nYMoII0ZGkiB-155" edge="1">
          <mxGeometry relative="1" as="geometry" />
        </mxCell>
        <mxCell id="1lFtdwW7nYMoII0ZGkiB-195" style="edgeStyle=orthogonalEdgeStyle;orthogonalLoop=1;jettySize=auto;html=1;exitX=1;exitY=0.5;exitDx=0;exitDy=0;entryX=0.5;entryY=0;entryDx=0;entryDy=0;curved=1;" parent="1" source="1lFtdwW7nYMoII0ZGkiB-165" target="1lFtdwW7nYMoII0ZGkiB-156" edge="1">
          <mxGeometry relative="1" as="geometry" />
        </mxCell>
        <mxCell id="1lFtdwW7nYMoII0ZGkiB-165" value="«Concrete»&lt;br&gt;&lt;b&gt;PlayerController&lt;/b&gt;" style="html=1;dropTarget=0;whiteSpace=wrap;verticalAlign=middle;gradientColor=none;dashed=1;" parent="1" vertex="1">
          <mxGeometry x="920" y="450" width="160" height="60" as="geometry" />
        </mxCell>
        <mxCell id="1lFtdwW7nYMoII0ZGkiB-196" style="edgeStyle=orthogonalEdgeStyle;rounded=0;orthogonalLoop=1;jettySize=auto;html=1;exitX=0.5;exitY=1;exitDx=0;exitDy=0;entryX=0.5;entryY=0;entryDx=0;entryDy=0;" parent="1" source="1lFtdwW7nYMoII0ZGkiB-167" target="1lFtdwW7nYMoII0ZGkiB-169" edge="1">
          <mxGeometry relative="1" as="geometry" />
        </mxCell>
        <mxCell id="1lFtdwW7nYMoII0ZGkiB-197" style="edgeStyle=orthogonalEdgeStyle;orthogonalLoop=1;jettySize=auto;html=1;exitX=1;exitY=0.5;exitDx=0;exitDy=0;entryX=0.5;entryY=0;entryDx=0;entryDy=0;curved=1;" parent="1" source="1lFtdwW7nYMoII0ZGkiB-167" target="1lFtdwW7nYMoII0ZGkiB-168" edge="1">
          <mxGeometry relative="1" as="geometry" />
        </mxCell>
        <mxCell id="1lFtdwW7nYMoII0ZGkiB-167" value="«Concrete»&lt;br&gt;&lt;b&gt;PlayerController&lt;/b&gt;" style="html=1;dropTarget=0;whiteSpace=wrap;verticalAlign=middle;dashed=1;" parent="1" vertex="1">
          <mxGeometry x="1440" y="450" width="160" height="60" as="geometry" />
        </mxCell>
        <mxCell id="1lFtdwW7nYMoII0ZGkiB-168" value="«model»&lt;br&gt;&lt;b&gt;MouseClick&lt;/b&gt;" style="html=1;dropTarget=0;whiteSpace=wrap;verticalAlign=middle;" parent="1" vertex="1">
          <mxGeometry x="1680" y="570" width="160" height="60" as="geometry" />
        </mxCell>
        <mxCell id="1WuVOnrrcyGIG8zz4NqY-3" style="edgeStyle=orthogonalEdgeStyle;rounded=0;orthogonalLoop=1;jettySize=auto;html=1;exitX=1;exitY=0.5;exitDx=0;exitDy=0;entryX=0;entryY=0.5;entryDx=0;entryDy=0;" parent="1" source="1lFtdwW7nYMoII0ZGkiB-169" target="1lFtdwW7nYMoII0ZGkiB-168" edge="1">
          <mxGeometry relative="1" as="geometry" />
        </mxCell>
        <mxCell id="1lFtdwW7nYMoII0ZGkiB-169" value="«Interface»&lt;br&gt;&lt;b&gt;IMouseClickHandler&lt;br&gt;&lt;/b&gt;" style="html=1;dropTarget=0;whiteSpace=wrap;verticalAlign=middle;" parent="1" vertex="1">
          <mxGeometry x="1440" y="570" width="160" height="60" as="geometry" />
        </mxCell>
        <mxCell id="1lFtdwW7nYMoII0ZGkiB-176" value="«Component»&lt;br style=&quot;border-color: var(--border-color);&quot;&gt;&lt;b&gt;MouseMoveHandler&lt;/b&gt;" style="html=1;dropTarget=0;whiteSpace=wrap;verticalAlign=top;fillStyle=zigzag-line;fillColor=#f8cecc;strokeColor=#b85450;" parent="1" vertex="1">
          <mxGeometry x="880" y="960" width="480" height="160" as="geometry" />
        </mxCell>
        <mxCell id="1lFtdwW7nYMoII0ZGkiB-177" value="" style="shape=module;jettyWidth=8;jettyHeight=4;" parent="1lFtdwW7nYMoII0ZGkiB-176" vertex="1">
          <mxGeometry x="1" width="20" height="20" relative="1" as="geometry">
            <mxPoint x="-27" y="7" as="offset" />
          </mxGeometry>
        </mxCell>
        <mxCell id="1lFtdwW7nYMoII0ZGkiB-178" value="«Component»&lt;br style=&quot;border-color: var(--border-color);&quot;&gt;&lt;b&gt;MouseClickHandler&lt;br&gt;&lt;/b&gt;" style="html=1;dropTarget=0;whiteSpace=wrap;verticalAlign=top;fillStyle=zigzag-line;fillColor=#d5e8d4;strokeColor=#82b366;" parent="1" vertex="1">
          <mxGeometry x="1400" y="960" width="480" height="160" as="geometry" />
        </mxCell>
        <mxCell id="1lFtdwW7nYMoII0ZGkiB-179" value="" style="shape=module;jettyWidth=8;jettyHeight=4;" parent="1lFtdwW7nYMoII0ZGkiB-178" vertex="1">
          <mxGeometry x="1" width="20" height="20" relative="1" as="geometry">
            <mxPoint x="-27" y="7" as="offset" />
          </mxGeometry>
        </mxCell>
        <mxCell id="1lFtdwW7nYMoII0ZGkiB-181" style="edgeStyle=orthogonalEdgeStyle;rounded=0;orthogonalLoop=1;jettySize=auto;html=1;entryX=0.5;entryY=1;entryDx=0;entryDy=0;dashed=1;" parent="1" source="1lFtdwW7nYMoII0ZGkiB-180" target="1lFtdwW7nYMoII0ZGkiB-155" edge="1">
          <mxGeometry relative="1" as="geometry" />
        </mxCell>
        <mxCell id="1lFtdwW7nYMoII0ZGkiB-182" style="edgeStyle=orthogonalEdgeStyle;orthogonalLoop=1;jettySize=auto;html=1;exitX=1;exitY=0.5;exitDx=0;exitDy=0;entryX=0.5;entryY=1;entryDx=0;entryDy=0;curved=1;" parent="1" source="1lFtdwW7nYMoII0ZGkiB-180" target="1lFtdwW7nYMoII0ZGkiB-156" edge="1">
          <mxGeometry relative="1" as="geometry" />
        </mxCell>
        <mxCell id="1lFtdwW7nYMoII0ZGkiB-180" value="«Concrete»&lt;br&gt;&lt;b&gt;Weapon_Aiming&lt;/b&gt;" style="html=1;dropTarget=0;whiteSpace=wrap;verticalAlign=middle;" parent="1" vertex="1">
          <mxGeometry x="920" y="780" width="160" height="60" as="geometry" />
        </mxCell>
        <mxCell id="1lFtdwW7nYMoII0ZGkiB-184" style="edgeStyle=orthogonalEdgeStyle;rounded=0;orthogonalLoop=1;jettySize=auto;html=1;entryX=0.5;entryY=1;entryDx=0;entryDy=0;dashed=1;" parent="1" source="1lFtdwW7nYMoII0ZGkiB-183" target="1lFtdwW7nYMoII0ZGkiB-169" edge="1">
          <mxGeometry relative="1" as="geometry" />
        </mxCell>
        <mxCell id="1lFtdwW7nYMoII0ZGkiB-185" style="edgeStyle=orthogonalEdgeStyle;orthogonalLoop=1;jettySize=auto;html=1;exitX=1;exitY=0.5;exitDx=0;exitDy=0;curved=1;" parent="1" source="1lFtdwW7nYMoII0ZGkiB-183" target="1lFtdwW7nYMoII0ZGkiB-168" edge="1">
          <mxGeometry relative="1" as="geometry" />
        </mxCell>
        <mxCell id="1lFtdwW7nYMoII0ZGkiB-183" value="«Concrete»&lt;br&gt;&lt;b&gt;Weapon_Shooting&lt;br&gt;&lt;/b&gt;" style="html=1;dropTarget=0;whiteSpace=wrap;verticalAlign=middle;" parent="1" vertex="1">
          <mxGeometry x="1440" y="780" width="160" height="60" as="geometry" />
        </mxCell>
        <mxCell id="1lFtdwW7nYMoII0ZGkiB-192" value="&lt;b style=&quot;border-color: var(--border-color);&quot;&gt;IController&lt;/b&gt;" style="text;html=1;align=center;verticalAlign=middle;resizable=0;points=[];autosize=1;strokeColor=none;fillColor=none;" parent="1" vertex="1">
          <mxGeometry x="150" y="160" width="80" height="30" as="geometry" />
        </mxCell>
      </root>
    </mxGraphModel>
  </diagram>
</mxfile>
